<?xml version="1.0" encoding="UTF-8"?>
<svg width="32px" height="32px" viewBox="0 0 32 32" version="1.1" xmlns="http://www.w3.org/2000/svg" xmlns:xlink="http://www.w3.org/1999/xlink">
    <title>chapter</title>
    <g id="Page-1" stroke="none" stroke-width="1" fill="none" fill-rule="evenodd">
        <g id="Dashboard" transform="translate(-42.000000, -798.000000)" fill-rule="nonzero">
            <g id="Group-2" transform="translate(20.000000, 447.000000)">
                <g id="chapter" transform="translate(22.000000, 351.000000)">
                    <circle id="Oval" fill="#0091FF" cx="16" cy="16" r="16"></circle>
                    <g id="book" transform="translate(7.000000, 7.000000)">
                        <path d="M16.9012619,12.5640044 L3.14954643,12.5640044 C1.77971616,12.5640044 0.669221465,13.6744628 0.669221465,15.0443293 C0.669221465,16.4141596 1.77967988,17.5246543 3.14954643,17.5246543 L16.9012619,17.5246543 L16.9012619,12.5640044 Z" id="Path" fill="#FDD79B"></path>
                        <path d="M3.69764545,15.044293 C3.69764545,14.0479902 4.04345039,13.1570616 4.58701367,12.5640044 L3.14954643,12.5640044 C1.77971616,12.5640044 0.669221465,13.6744991 0.669221465,15.044293 C0.669221465,16.4141233 1.77971616,17.524618 3.14954643,17.524618 L4.58701367,17.524618 C4.04345039,16.9315244 3.69764545,16.0406322 3.69764545,15.044293 Z" id="Path" fill="#FCCD7F"></path>
                        <path d="M4.01895738,17.9858122 L2.99529492,17.9858122 C1.34105552,17.9858122 0,16.6447567 0,14.9905173 C0,13.3362779 1.34105552,11.9952224 2.99529492,11.9952224 L17.7023828,11.9952224 C17.851518,11.9952224 17.9724227,12.1161271 17.9724227,12.2652623 L17.9724227,13.1040116 C17.9724227,13.2531468 17.851518,13.3740515 17.7023828,13.3740515 L3.0239971,13.3740515 C2.11949764,13.3740515 1.36362537,14.1142483 1.37911946,15.0186026 C1.39417812,15.8970125 2.1134016,16.6069105 2.99533121,16.6069105 L4.01895738,16.6069105 L17.7023828,16.6069105 C17.851518,16.6069105 17.9724227,16.7278152 17.9724227,16.8769504 L17.9724227,17.7156997 C17.9724227,17.8648349 17.851518,17.9857396 17.7023828,17.9857396 L4.01895738,17.9857396 L4.01895738,17.9858122 Z" id="Path" fill="#9CF8D2"></path>
                        <path d="M7.23421763,17.8987622 L6.276015,17.5021933 L5.31781236,17.8987622 C5.21766319,17.9402008 5.10749909,17.8666129 5.10749909,17.7581905 L5.10749909,14.990481 L7.44449464,14.990481 L7.44449464,17.7581905 C7.4445309,17.8666129 7.33436681,17.9402371 7.23421763,17.8987622 Z" id="Path" fill="#EE6161"></path>
                        <path d="M7.91842519,15.2626618 L4.50500746,15.2626618 C4.35471112,15.2626618 4.23286296,15.1408499 4.23286296,14.9905173 C4.23286296,14.8401847 4.35471112,14.7183728 4.50500746,14.7183728 L7.91842519,14.7183728 C8.06872153,14.7183728 8.19056969,14.8401847 8.19056969,14.9905173 C8.19056969,15.1408499 8.06872153,15.2626618 7.91842519,15.2626618 Z" id="Path" fill="#FCCD7F"></path>
                        <path d="M1.0779825,6.43012136 L14.4703221,6.43012136 C15.8576785,6.43012136 16.9823247,7.55476757 16.9823247,8.94212394 C16.9823247,10.3294803 15.8576785,11.4541265 14.4703221,11.4541265 L1.0779825,11.4541265 L1.0779825,6.43012136 Z" id="Path" fill="#FDD79B"></path>
                        <polygon id="Path" fill="#FCCD7F" points="1.0779825 6.43012136 4.13441922 6.43012136 4.13441922 11.4541265 1.0779825 11.4541265"></polygon>
                        <path d="M13.9602871,11.9952224 L14.9839495,11.9952224 C16.6381889,11.9952224 17.9792444,10.6541668 17.9792444,8.99992743 C17.9792444,7.34568802 16.6381889,6.0046325 14.9839495,6.0046325 L0.27686167,6.0046325 C0.127726485,6.0046325 0.00682175543,6.12553723 0.00682175543,6.27467242 L0.00682175543,7.11342176 C0.00682175543,7.26255695 0.127726485,7.38346168 0.27686167,7.38346168 L14.9552473,7.38346168 C15.8597468,7.38346168 16.6156191,8.12365843 16.600125,9.02801274 C16.5850663,9.90642261 15.8658428,10.6163206 14.9839132,10.6163206 L13.9602871,10.6163206 L0.27686167,10.6163206 C0.127726485,10.6163206 0.00682175543,10.7372253 0.00682175543,10.8863605 L0.00682175543,11.7251099 C0.00682175543,11.8742451 0.127726485,11.9951498 0.27686167,11.9951498 L13.9602871,11.9951498 L13.9602871,11.9952224 Z" id="Path" fill="#F47C7C"></path>
                        <g id="Group" transform="translate(0.000000, 5.987179)" fill="#EE6161">
                            <path d="M0.27686167,1.39628271 L4.08354635,1.39628271 C3.93441116,1.39628271 3.81350643,1.27537798 3.81350643,1.12624279 L3.81350643,0.287493448 C3.81350643,0.138358263 3.93441116,0.0174535338 4.08354635,0.0174535338 L0.27686167,0.0174535338 C0.127726485,0.0174535338 0.00682175543,0.138358263 0.00682175543,0.287493448 L0.00682175543,1.12624279 C0.00682175543,1.27537798 0.127726485,1.39628271 0.27686167,1.39628271 Z" id="Path"></path>
                            <path d="M3.81350643,5.73800347 L3.81350643,4.89925412 C3.81350643,4.75011894 3.93441116,4.62921421 4.08354635,4.62921421 L0.27686167,4.62921421 C0.127726485,4.62921421 0.00682175543,4.75011894 0.00682175543,4.89925412 L0.00682175543,5.73800347 C0.00682175543,5.88713865 0.127726485,6.00804338 0.27686167,6.00804338 L4.08354635,6.00804338 C3.93441116,6.00804338 3.81350643,5.88713865 3.81350643,5.73800347 Z" id="Path"></path>
                        </g>
                        <path d="M16.9012619,0.448784421 L2.88023223,0.448784421 C1.50630166,0.448784421 0.392504939,1.56258114 0.392504939,2.93651171 C0.392504939,4.31044229 1.50630166,5.424239 2.88023223,5.424239 L16.9012619,5.424239 L16.9012619,0.448784421 Z" id="Path" fill="#FDD79B"></path>
                        <path d="M3.20959965,3.07650284 C3.20959965,1.99648833 3.73661654,1.03970084 4.54735314,0.448784421 L2.88023223,0.448784421 C1.50630166,0.448784421 0.392504939,1.56258114 0.392504939,2.93651171 C0.392504939,4.31044229 1.50630166,5.424239 2.88023223,5.424239 L4.21250655,5.424239 C3.59448454,4.83270572 3.20959965,3.9995807 3.20959965,3.07650284 Z" id="Path" fill="#FCCD7F"></path>
                        <path d="M10.7167964,11.9198565 L11.7032294,11.5116034 L12.6896625,11.9198565 C12.7763859,11.9557433 12.8717454,11.8920252 12.8717454,11.7981534 L12.8717454,8.99992743 L10.5347498,8.99992743 L10.5347498,11.7981534 C10.5347135,11.8919889 10.630073,11.9557433 10.7167964,11.9198565 Z" id="Path" fill="#FDB441"></path>
                        <path d="M13.4742007,9.27207193 L10.0608193,9.27207193 C9.91048663,9.27207193 9.78867476,9.15026005 9.78867476,8.99992743 C9.78867476,8.84959481 9.91048663,8.72778293 10.0608193,8.72778293 L13.4742007,8.72778293 C13.6245333,8.72778293 13.7463452,8.84959481 13.7463452,8.99992743 C13.7463452,9.15026005 13.6245333,9.27207193 13.4742007,9.27207193 Z" id="Path" fill="#FCCD7F"></path>
                        <g id="XMLID_1099_" fill="#FDB441">
                            <path d="M18,4.89573439 L18,5.73466516 C18,5.88380035 17.878805,6.0046325 17.7296698,6.0046325 L4.04624441,6.0046325 L3.02261823,6.0046325 C2.19566182,6.0046325 1.44672015,5.66935048 0.904608314,5.12723864 C0.362859332,4.5851268 0.0275773092,3.836548 0.0275773092,3.00922872 C0.0275773092,1.35495303 1.36834254,0.0141877999 3.02261823,0.0141877999 L17.7296698,0.0141877999 C17.878805,0.0141877999 18,0.135019957 18,0.284155143 L18,1.12272306 C18,1.27185824 17.878805,1.39305326 17.7296698,1.39305326 L3.05128412,1.39305326 C2.14703866,1.39305326 1.39120268,2.13292344 1.40644277,3.03753175 C1.42168286,3.91565133 2.14087006,4.62576704 3.02261823,4.62576704 L4.04624441,4.62576704 L17.7296698,4.62576704 C17.878805,4.62576704 18,4.7465992 18,4.89573439 Z" id="Path"></path>
                        </g>
                        <path d="M3.60195944,4.62573076 L3.02261823,4.62573076 C2.14087006,4.62573076 1.42168286,3.91561505 1.40644277,3.03749546 C1.39120268,2.13288715 2.14703866,1.39301697 3.05128412,1.39301697 L3.67910333,1.39301697 C4.06409709,0.758593719 4.66020239,0.266629037 5.36988268,0.0141515139 L3.02261823,0.0141515139 C1.36834254,0.0141515139 0.0275773092,1.35491674 0.0275773092,3.00919244 C0.0275773092,3.83651171 0.362859332,4.58509051 0.904608314,5.12720235 C1.44672015,5.6693142 2.19566182,6.00459622 3.02261823,6.00459622 L4.04624441,6.00459622 L5.04820788,6.00459622 C4.43366931,5.70792243 3.92675483,5.22350522 3.60195944,4.62573076 Z" id="Path" fill="#FEA613"></path>
                        <path d="M7.32522276,5.94385357 L6.30348345,5.5209773 L5.28174414,5.94385357 C5.21185744,5.97277345 5.13500383,5.92139257 5.13500383,5.84577269 L5.13500383,3.00930129 L7.47199935,3.00930129 L7.47199935,5.84577269 C7.47196307,5.92142886 7.39510946,5.97280974 7.32522276,5.94385357 L7.32522276,5.94385357 Z" id="Path" fill="#9CF8D2"></path>
                        <path d="M7.94585736,3.28144579 L4.53243962,3.28144579 C4.38214329,3.28144579 4.26029513,3.15963392 4.26029513,3.0093013 C4.26029513,2.85896867 4.38214329,2.7371568 4.53243962,2.7371568 L7.94585736,2.7371568 C8.09615369,2.7371568 8.21800185,2.85896867 8.21800185,3.0093013 C8.21800185,3.15963392 8.09618998,3.28144579 7.94585736,3.28144579 Z" id="Path" fill="#FCCD7F"></path>
                        <path d="M4.00622102,16.6069467 L2.99529492,16.6069467 C2.11336532,16.6069467 1.39414184,15.8970125 1.37908318,15.0186389 C1.36358908,14.1142846 2.11946136,13.3740878 3.02396081,13.3740878 L4.05382817,13.3740878 C4.34850623,12.7386848 4.80621699,12.2463573 5.35141314,11.9952224 L2.99529492,11.9952224 C1.34105552,11.9952224 1.42108547e-14,13.3362779 1.42108547e-14,14.9905173 C1.42108547e-14,16.6447567 1.34105552,17.9858122 2.99529492,17.9858122 L4.01895738,17.9858122 L5.14723219,17.9858122 C4.66306898,17.697085 4.26265371,17.2112164 4.00622102,16.6069467 Z" id="Path" fill="#6CF5C2"></path>
                    </g>
                </g>
            </g>
        </g>
    </g>
</svg>