<?xml version="1.0" encoding="UTF-8"?>
<svg width="209px" height="42px" viewBox="0 0 209 42" version="1.1" xmlns="http://www.w3.org/2000/svg" xmlns:xlink="http://www.w3.org/1999/xlink">
    <title>Congratulations</title>
    <g id="Page-1" stroke="none" stroke-width="1" fill="none" fill-rule="evenodd">
        <g id="Upgrade-level" transform="translate(-77.000000, -410.000000)" fill="#FF3366" fill-rule="nonzero">
            <path d="M89.7795,434.688 C91.5015,433.458 94.1255,430.383 93.1005,427.636 C92.8955,427.103 92.4445,427.103 92.2395,427.554 C89.1235,433.663 84.7775,436.41 82.1535,434.278 C80.1445,432.638 79.7345,426.57 83.3425,420.584 C87.0325,414.475 93.2645,411.154 94.4125,412.384 C95.3555,413.368 93.8795,415.705 93.2235,417.878 C92.6085,419.928 93.2645,421.199 94.2075,421.814 C94.6995,422.142 94.9865,421.896 95.1095,421.568 C95.5605,420.379 96.1345,418.78 96.7495,417.509 C97.3645,416.238 97.4875,415.09 97.1185,413.901 C96.7905,412.876 95.8475,411.687 94.9455,410.908 C93.6335,409.76 91.6245,409.924 89.4105,410.785 C84.8185,412.548 77.5205,419.969 77.6845,428.661 C77.7665,432.023 79.3655,434.565 81.2105,435.549 C83.4245,436.738 86.8685,436.779 89.7795,434.688 Z M120.7755,436.697 C123.1945,436.697 125.6955,434.647 126.8025,432.351 C127.4175,431.08 127.4175,430.26 127.2125,429.768 C127.0895,429.44 126.6795,429.44 126.5155,429.768 C124.9165,432.72 122.9895,435.385 121.3495,435.426 C119.7915,435.467 119.5865,433.622 120.6525,431.285 C121.6365,429.153 123.5635,426.201 124.4655,424.356 C125.4905,422.265 124.2195,420.174 122.8665,420.01 C121.4725,419.846 118.7665,422.06 116.9215,423.987 C117.3725,422.552 117.3725,421.158 116.7575,420.133 C116.5115,419.764 116.1835,419.764 115.8965,420.215 C113.6825,423.577 111.0175,426.57 108.4345,426.611 C108.4755,426.365 108.4755,426.078 108.4755,425.873 C108.7215,422.921 107.4915,422.675 106.5075,421.363 C105.6875,420.256 104.9905,419.887 103.7605,420.01 C101.3005,420.215 98.8405,422.552 97.2415,425.34 C95.3965,428.538 94.7815,432.146 96.5855,434.565 C98.1845,436.738 100.2755,436.779 101.7515,436.287 C104.7855,435.303 107.4095,431.08 108.2295,427.595 C109.6645,427.677 110.9355,427.308 112.0425,426.57 C110.8125,428.743 109.9105,430.875 109.4595,432.146 C108.7625,434.196 109.0495,435.508 109.7875,436.328 C110.1565,436.738 110.4435,436.492 110.5665,436.205 C112.2475,432.351 114.1745,428.415 116.5525,425.832 C119.1765,422.962 121.4725,421.896 121.9645,422.06 C122.6615,422.306 119.0945,426.652 117.7005,430.67 C116.5115,434.155 117.3725,436.697 120.7755,436.697 Z M105.8515,425.873 C105.0315,425.217 104.7445,424.028 104.8675,423.126 C105.0315,421.937 105.8925,421.691 106.0975,423.003 C106.2205,423.741 106.0975,424.725 105.8515,425.873 Z M98.4305,434.688 C97.3235,433.786 97.8975,429.973 99.7015,426.898 C100.6035,425.381 101.7515,423.946 102.8995,423.003 C102.9405,424.602 104.1295,426.201 105.5645,426.98 C105.2365,428.005 104.7445,429.153 104.0475,430.465 C102.0795,434.155 99.5375,435.59 98.4305,434.688 Z M126.4745,450.883 C129.8775,449.53 132.7885,442.888 135.1255,437.394 C141.8905,434.606 144.9245,430.014 147.4255,424.274 C148.7785,424.274 150.5825,423.823 152.3865,422.675 C150.6235,424.684 148.1225,427.718 147.2615,430.465 C146.2365,433.745 147.4665,436.574 150.5825,436.697 C152.8375,436.779 155.2975,434.975 156.3225,432.515 C156.8145,431.367 156.7325,430.342 156.5275,429.85 C156.3635,429.44 156.0765,429.522 155.9125,429.85 C154.5595,432.925 152.4685,435.59 150.7875,435.508 C149.5575,435.467 149.0245,433.827 149.7625,431.572 C150.4595,429.399 152.5095,426.652 154.4775,424.438 C155.7075,423.044 154.6415,421.199 153.8625,420.297 C153.4935,419.887 153.2475,420.01 152.6735,420.379 C151.1155,421.445 149.6395,422.06 148.2455,422.306 C149.2705,419.559 149.7215,417.058 148.3275,417.14 C146.6875,417.222 142.7105,422.675 145.7035,423.987 C143.5305,429.727 140.0865,433.458 135.8635,435.631 C137.6265,431.695 140.0455,426.898 141.2345,424.52 C142.2595,422.429 141.9725,420.707 141.3985,420.01 C141.0705,419.6 140.7015,419.723 140.3735,420.215 C139.9225,420.871 139.4715,421.65 138.9795,422.47 C139.0205,421.035 138.2005,419.764 136.5195,419.764 C134.4695,419.764 131.2715,421.65 127.9915,426.365 C124.5885,431.285 125.3675,436.492 129.0985,436.492 C130.6565,436.492 132.0915,435.549 133.2805,434.36 C132.8705,435.303 132.5015,436.205 132.1325,437.148 C127.9505,438.829 124.5065,441.289 123.3175,444.938 C122.5385,447.357 123.3175,448.792 124.1375,450.022 C124.8755,451.17 125.7365,451.17 126.4745,450.883 Z M129.6315,435.139 C128.0325,435.139 128.4835,431.531 130.6975,428.005 C132.9525,424.397 135.9045,421.773 137.2165,421.855 C138.3645,421.937 138.0365,424.52 135.4125,428.989 C133.2805,432.597 131.1895,435.139 129.6315,435.139 Z M124.9575,448.628 C124.2195,447.603 126.0235,442.068 131.4355,438.87 C128.7705,445.061 125.4905,449.407 124.9575,448.628 Z M173.1735,432.351 C173.7065,431.203 173.7065,430.178 173.5425,429.809 C173.3785,429.44 173.0915,429.481 172.8865,429.85 C171.4515,432.679 169.1965,435.467 167.5155,435.549 C166.1215,435.631 166.1625,433.868 167.1875,431.572 C168.1715,429.399 170.2215,426.324 171.1235,424.479 C172.1075,422.429 171.7795,420.666 171.1645,419.928 C170.8775,419.559 170.5495,419.641 170.1805,420.174 C169.7295,420.83 169.2375,421.691 168.7045,422.675 C168.7865,421.076 167.9665,419.723 166.2035,419.723 C164.1535,419.723 160.9145,421.568 157.5935,426.406 C154.1905,431.367 154.9695,436.574 158.7825,436.574 C160.7505,436.574 162.5955,435.057 163.9075,433.376 C163.9075,435.303 165.0555,436.615 167.2695,436.738 C169.5245,436.861 172.1075,434.606 173.1735,432.351 Z M159.2335,435.221 C157.6345,435.18 158.1675,431.572 160.3405,428.046 C162.5955,424.397 165.5885,421.732 166.9005,421.855 C168.0895,421.978 167.7205,424.52 165.1375,429.03 C163.0465,432.638 160.9145,435.262 159.2335,435.221 Z M182.3165,431.941 C182.7265,430.998 182.9315,430.26 182.7265,429.604 C182.5625,429.03 182.1115,429.112 181.8655,429.604 C180.3485,432.679 178.0115,435.59 176.1665,435.508 C174.4445,435.426 173.9935,432.884 175.3465,429.891 C176.9045,426.447 179.2415,422.47 180.8405,419.723 C181.8655,419.559 183.1365,419.436 184.0385,419.559 C184.6535,419.559 184.8175,419.272 184.5305,418.78 C184.2025,418.247 183.5875,417.509 181.9885,417.55 C182.9725,415.418 182.9725,414.065 182.5215,412.917 C182.3165,412.425 181.9065,412.384 181.5375,412.917 C180.8405,413.819 179.6925,415.746 178.4215,418.001 C177.3145,418.124 176.1665,418.206 175.0185,418.165 C174.4035,418.124 174.1575,418.411 174.5675,418.985 C174.8955,419.436 175.8385,420.051 177.2325,420.051 C175.4695,423.29 173.7475,426.734 172.8865,428.784 C170.9185,433.499 173.0915,436.533 175.7975,436.615 C179.0775,436.738 181.7835,433.13 182.3165,431.941 Z M192.3205,436.738 C194.7395,436.738 197.2815,434.647 198.4705,432.351 C199.0445,431.203 199.0035,430.096 198.8395,429.768 C198.6755,429.399 198.3065,429.44 198.1015,429.809 C196.5025,432.679 194.4115,435.385 192.6895,435.467 C191.2135,435.549 191.0495,433.827 192.1155,431.49 C193.0585,429.399 195.1085,426.324 196.0105,424.479 C196.9945,422.429 196.6665,420.625 196.0515,419.887 C195.7235,419.477 195.4365,419.559 195.0265,420.133 C193.7145,421.896 192.5255,424.725 189.9425,428.907 C187.7285,432.474 185.4735,435.344 183.8745,435.221 C182.9315,435.139 182.8085,433.663 183.6695,431.654 C184.5305,429.686 185.3505,428.046 186.8675,425.627 C188.3435,423.29 188.5485,421.445 187.6465,420.092 C187.3185,419.723 186.9085,419.682 186.5805,420.133 C183.9155,423.864 181.8245,427.882 180.9225,430.588 C180.0205,433.294 180.1025,436.328 183.0135,436.533 C185.3095,436.697 187.4825,434.606 188.9175,432.679 C188.5895,435.057 189.6555,436.738 192.3205,436.738 Z M208.1465,431.982 C208.5975,430.998 208.7615,430.096 208.5565,429.44 C208.3925,428.866 207.9415,428.907 207.6545,429.44 C206.0555,432.597 203.1855,435.549 201.2175,435.385 C199.3725,435.221 199.8235,431.818 201.4635,427.8 C205.1125,425.422 209.7045,420.502 210.9755,415.459 C211.4675,413.532 211.2215,412.015 210.0325,410.949 C209.4585,410.416 208.8845,410.498 208.2695,411.154 C204.0875,415.5 199.4135,422.921 197.8965,430.055 C196.9535,434.483 198.4705,436.451 201.2995,436.533 C204.5795,436.615 207.5725,433.212 208.1465,431.982 Z M202.2015,426.037 C202.4885,425.381 202.8165,424.725 203.1855,424.069 C206.0145,418.821 209.0485,414.27 209.5815,414.598 C210.1145,414.926 207.8185,421.486 202.2015,426.037 Z M224.6285,432.351 C225.1615,431.203 225.1615,430.178 224.9975,429.809 C224.8335,429.44 224.5465,429.481 224.3415,429.85 C222.9065,432.679 220.6515,435.467 218.9705,435.549 C217.5765,435.631 217.6175,433.868 218.6425,431.572 C219.6265,429.399 221.6765,426.324 222.5785,424.479 C223.5625,422.429 223.2345,420.666 222.6195,419.928 C222.3325,419.559 222.0045,419.641 221.6355,420.174 C221.1845,420.83 220.6925,421.691 220.1595,422.675 C220.2415,421.076 219.4215,419.723 217.6585,419.723 C215.6085,419.723 212.3695,421.568 209.0485,426.406 C205.6455,431.367 206.4245,436.574 210.2375,436.574 C212.2055,436.574 214.0505,435.057 215.3625,433.376 C215.3625,435.303 216.5105,436.615 218.7245,436.738 C220.9795,436.861 223.5625,434.606 224.6285,432.351 Z M210.6885,435.221 C209.0895,435.18 209.6225,431.572 211.7955,428.046 C214.0505,424.397 217.0435,421.732 218.3555,421.855 C219.5445,421.978 219.1755,424.52 216.5925,429.03 C214.5015,432.638 212.3695,435.262 210.6885,435.221 Z M233.7715,431.941 C234.1815,430.998 234.3865,430.26 234.1815,429.604 C234.0175,429.03 233.5665,429.112 233.3205,429.604 C231.8035,432.679 229.4665,435.59 227.6215,435.508 C225.8995,435.426 225.4485,432.884 226.8015,429.891 C228.3595,426.447 230.6965,422.47 232.2955,419.723 C233.3205,419.559 234.5915,419.436 235.4935,419.559 C236.1085,419.559 236.2725,419.272 235.9855,418.78 C235.6575,418.247 235.0425,417.509 233.4435,417.55 C234.4275,415.418 234.4275,414.065 233.9765,412.917 C233.7715,412.425 233.3615,412.384 232.9925,412.917 C232.2955,413.819 231.1475,415.746 229.8765,418.001 C228.7695,418.124 227.6215,418.206 226.4735,418.165 C225.8585,418.124 225.6125,418.411 226.0225,418.985 C226.3505,419.436 227.2935,420.051 228.6875,420.051 C226.9245,423.29 225.2025,426.734 224.3415,428.784 C222.3735,433.499 224.5465,436.533 227.2525,436.615 C230.5325,436.738 233.2385,433.13 233.7715,431.941 Z M241.5615,419.928 C242.0945,419.354 242.3815,418.247 241.8485,417.181 C241.3155,416.074 240.1265,415.582 239.4705,416.279 C238.8145,416.976 238.6095,418.206 239.2655,419.313 C239.8805,420.379 241.0285,420.502 241.5615,419.928 Z M235.1655,436.615 C237.4615,436.615 240.0445,434.893 241.2745,432.351 C241.7665,431.326 241.8895,430.465 241.5615,429.809 C241.3975,429.481 241.1105,429.44 240.9055,429.809 C239.6755,432.638 237.4205,435.344 235.5755,435.426 C234.2635,435.508 234.1815,433.909 235.1655,431.531 C236.0265,429.481 237.7485,426.693 238.6095,424.889 C239.5935,422.839 239.2655,421.076 238.6505,420.42 C238.3225,420.051 238.0355,420.174 237.6665,420.666 C236.1495,422.798 233.4435,427.636 232.4185,430.629 C231.2705,433.991 232.0495,436.615 235.1655,436.615 Z M266.0795,436.697 C268.4985,436.697 270.9995,434.647 272.1065,432.351 C272.7215,431.08 272.7215,430.26 272.5165,429.768 C272.3935,429.44 271.9835,429.44 271.8195,429.768 C270.2205,432.72 268.2935,435.385 266.6535,435.426 C265.0955,435.467 264.8905,433.622 265.9565,431.285 C266.9405,429.153 268.8675,426.201 269.7695,424.356 C270.7945,422.265 269.5235,420.174 268.1705,420.01 C266.7765,419.846 264.0705,422.06 262.2255,423.987 C262.6765,422.552 262.6765,421.158 262.0615,420.133 C261.8155,419.764 261.4875,419.764 261.2005,420.215 C258.9865,423.577 256.3215,426.57 253.7385,426.611 C253.7795,426.365 253.7795,426.078 253.7795,425.873 C254.0255,422.921 252.7955,422.675 251.8115,421.363 C250.9915,420.256 250.2945,419.887 249.0645,420.01 C246.6045,420.215 244.1445,422.552 242.5455,425.34 C240.7005,428.538 240.0855,432.146 241.8895,434.565 C243.4885,436.738 245.5795,436.779 247.0555,436.287 C250.0895,435.303 252.7135,431.08 253.5335,427.595 C254.9685,427.677 256.2395,427.308 257.3465,426.57 C256.1165,428.743 255.2145,430.875 254.7635,432.146 C254.0665,434.196 254.3535,435.508 255.0915,436.328 C255.4605,436.738 255.7475,436.492 255.8705,436.205 C257.5515,432.351 259.4785,428.415 261.8565,425.832 C264.4805,422.962 266.7765,421.896 267.2685,422.06 C267.9655,422.306 264.3985,426.652 263.0045,430.67 C261.8155,434.155 262.6765,436.697 266.0795,436.697 Z M251.1555,425.873 C250.3355,425.217 250.0485,424.028 250.1715,423.126 C250.3355,421.937 251.1965,421.691 251.4015,423.003 C251.5245,423.741 251.4015,424.725 251.1555,425.873 Z M243.7345,434.688 C242.6275,433.786 243.2015,429.973 245.0055,426.898 C245.9075,425.381 247.0555,423.946 248.2035,423.003 C248.2445,424.602 249.4335,426.201 250.8685,426.98 C250.5405,428.005 250.0485,429.153 249.3515,430.465 C247.3835,434.155 244.8415,435.59 243.7345,434.688 Z M277.4775,436.656 C280.3885,436.533 283.1765,434.975 284.7345,432.146 C285.4315,430.875 285.4725,429.809 285.3085,429.44 C285.1445,429.112 284.7345,428.989 284.5295,429.44 C283.5045,431.654 281.7825,434.114 279.0355,435.139 C280.5115,434.155 280.7985,432.433 280.8805,430.834 C281.0035,428.005 280.2245,424.807 280.5115,421.035 C280.6755,420.748 280.7985,420.502 280.9625,420.256 C281.4955,419.313 281.7005,418.862 281.2905,418.452 C280.9215,418.083 279.9785,418.247 279.0765,419.067 C278.2155,419.846 277.8055,420.625 277.6005,422.224 C276.4115,424.315 274.5665,426.98 272.8855,429.276 C272.8445,428.948 272.8445,428.62 272.8035,428.292 C272.7625,427.636 272.4345,427.472 271.9425,427.882 C270.5485,429.03 270.4255,431.736 271.4095,433.581 C272.8035,436.123 275.0995,436.738 277.4775,436.656 Z M273.2545,431.49 C274.8125,429.276 276.3295,427.021 277.5185,424.848 C277.6825,428.128 278.2975,434.565 276.4115,435.139 C275.0585,435.549 273.8695,433.868 273.2545,431.49 Z" id="Congratulations"></path>
        </g>
    </g>
</svg>