<?xml version="1.0" encoding="UTF-8"?>
<svg width="36px" height="100px" viewBox="0 0 36 100" version="1.1" xmlns="http://www.w3.org/2000/svg" xmlns:xlink="http://www.w3.org/1999/xlink">
    <title>big-ben</title>
    <g id="Page-1" stroke="none" stroke-width="1" fill="none" fill-rule="evenodd">
        <g id="Choose-language" transform="translate(-83.000000, -244.000000)" fill="#FFFFFF" fill-rule="nonzero">
            <g id="Group-2" transform="translate(28.000000, 214.000000)">
                <g id="big-ben" transform="translate(55.000000, 30.000000)">
                    <path d="M0.0662109375,35.1605469 L0.0662109375,64.325 L35.0900391,64.325 L35.0900391,35.1605469 L0.0662109375,35.1605469 Z M17.578125,57.3078125 C13.4001953,57.3078125 10.0132813,53.9208984 10.0132813,49.7427734 C10.0132813,45.5646484 13.4001953,42.1777344 17.578125,42.1777344 C21.7560547,42.1777344 25.1429688,45.5646484 25.1429688,49.7427734 C25.1429688,53.9208984 21.7560547,57.3078125 17.578125,57.3078125 Z" id="Shape"></path>
                    <polygon id="Path" points="3.05703125 70.1845703 3.05703125 100 8.81113281 100 8.81113281 77.7982422 14.6705078 77.7982422 14.6705078 100 20.4857422 100 20.4857422 77.7982422 26.3451172 77.7982422 26.3451172 100 32.0994141 100 32.0994141 70.1845703"></polygon>
                    <polygon id="Path" points="28.3474609 22.2865234 28.3474609 16.6587891 20.3988281 6.91523438 20.5078125 6.91523438 20.5078125 0 14.6484375 0 14.6484375 6.91523438 14.7576172 6.91523438 6.80878906 16.6587891 6.80878906 22.2865234 3.05703125 22.2865234 3.05703125 29.3011719 32.0992188 29.3011719 32.0992188 22.2865234"></polygon>
                </g>
            </g>
        </g>
    </g>
</svg>