<?xml version="1.0" encoding="UTF-8"?>
<svg width="30px" height="30px" viewBox="0 0 30 30" version="1.1" xmlns="http://www.w3.org/2000/svg" xmlns:xlink="http://www.w3.org/1999/xlink">
    <title>Group 4</title>
    <g id="Page-1" stroke="none" stroke-width="1" fill="none" fill-rule="evenodd">
        <g id="Chapters" transform="translate(-310.000000, -342.000000)">
            <g id="Group-2" transform="translate(20.000000, 289.000000)">
                <g id="Group-4" transform="translate(290.000000, 53.000000)">
                    <rect id="Rectangle" fill="#FF3366" opacity="0.104980469" x="0" y="0" width="30" height="30" rx="8"></rect>
                    <g id="Group" transform="translate(15.000000, 15.000000) scale(-1, 1) translate(-15.000000, -15.000000) translate(3.000000, 3.000000)">
                        <polygon id="Shape" points="0 0 24 0 24 24 0 24"></polygon>
                        <path d="M7,8 L7,5 L0,12 L7,19 L7,16 L3,12 L7,8 L7,8 Z M13,9 L13,5 L6,12 L13,19 L13,14.9 C18,14.9 21.5,16.5 24,20 C23,15 20,10 13,9 L13,9 Z" id="Shape" fill="#FF3366"></path>
                    </g>
                </g>
            </g>
        </g>
    </g>
</svg>