<?xml version="1.0" encoding="UTF-8"?>
<svg width="280px" height="325px" viewBox="0 0 280 325" version="1.1" xmlns="http://www.w3.org/2000/svg" xmlns:xlink="http://www.w3.org/1999/xlink">
    <title>fireworks</title>
    <g id="Page-1" stroke="none" stroke-width="1" fill="none" fill-rule="evenodd">
        <g id="Quiz-Thanks" transform="translate(-40.000000, -476.000000)" fill-rule="nonzero">
            <g id="fireworks" transform="translate(40.000000, 476.000000)">
                <path d="M64.5658937,314.428379 C63.3904834,314.428379 62.2150738,313.98791 61.3044404,313.104496 C59.4485294,311.303026 59.4039879,308.338518 61.2079329,306.482608 L67.0280686,300.486779 C68.8295392,298.630868 71.7940468,298.586327 73.6499577,300.387797 C75.5058681,302.189268 75.5504102,305.153775 73.7489396,307.009686 L67.9263289,313.005514 C67.0082722,313.953266 65.7883198,314.428379 64.5658937,314.428379 Z" id="Path" fill="#FF4E61"></path>
                <path d="M127.741092,84.4191885 C126.568156,84.4191885 125.390271,83.9787187 124.482112,83.0953054 C122.626202,81.2938348 122.58166,78.3293272 124.38313,76.4758907 L130.205741,70.4775875 C132.007211,68.6216772 134.969245,68.577135 136.825155,70.3786056 C138.681066,72.1800762 138.725608,75.1445844 136.924137,77.0004948 L131.101527,82.9987979 C130.18347,83.9440754 128.963518,84.4191885 127.741092,84.4191885 Z" id="Path" fill="#FF4E61"></path>
                <path d="M262.138716,63.595871 C260.963306,63.595871 259.787896,63.1578763 258.877262,62.274463 C257.021351,60.4729924 256.97681,57.5084842 258.778281,55.6525732 L264.600891,49.65427 C266.402361,47.8008341 269.36687,47.7562926 271.22278,49.5577632 C273.078691,51.3567587 273.123232,54.3237414 271.321762,56.1771779 L265.499152,62.1754811 C264.581094,63.1207579 263.361143,63.595871 262.138716,63.595871 Z" id="Path" fill="#5C73BC"></path>
                <path d="M262.138716,293.793128 C260.963306,293.793128 259.787896,293.352658 258.877262,292.471719 C257.021351,290.670249 256.97681,287.705741 258.778281,285.84983 L264.600891,279.851527 C266.402361,277.998091 269.36687,277.951075 271.22278,279.752545 C273.078691,281.554016 273.123232,284.518523 271.321762,286.374434 L265.499152,292.372738 C264.581094,293.318015 263.361143,293.793128 262.138716,293.793128 Z" id="Path" fill="#FFAA00"></path>
                <path d="M39.9540438,71.5267957 C38.7811086,71.5267957 37.603224,71.0888009 36.6950649,70.2053876 C34.8391546,68.403917 34.7946124,65.4394088 36.596083,63.5834985 L42.4186938,57.5851953 C44.2201643,55.7317587 47.1846719,55.6872172 49.0405823,57.4886878 C50.8940188,59.2901584 50.9385604,62.2546666 49.1370898,64.1081025 L43.3144796,70.1064057 C42.3964224,71.0516825 41.1764706,71.5267957 39.9540438,71.5267957 Z" id="Path" fill="#FFAA00"></path>
                <path d="M7.79729937,176.630727 C6.62436353,176.630727 5.44647891,176.192732 4.53831982,175.309318 C2.6824095,173.507848 2.63786733,170.54334 4.43933792,168.687429 L10.2594737,162.689126 C12.0609443,160.833216 15.0254525,160.788673 16.8813634,162.590144 C18.7372738,164.391615 18.7818159,167.356123 16.9803453,169.212033 L11.1577346,175.210336 C10.2421523,176.155614 9.01972552,176.630727 7.79729937,176.630727 Z" id="Path" fill="#2DC471"></path>
                <path d="M137.01817,176.420391 L121.817025,184.65321 C117.875071,186.788744 113.267463,183.339225 114.019726,178.815753 L116.92237,161.38009 C117.22179,159.583569 116.64522,157.752404 115.378252,156.480486 L103.079751,144.13002 C99.8900595,140.927955 101.649463,135.347851 106.059106,134.687146 L123.051824,132.143311 C124.803804,131.88101 126.315753,130.750142 127.097709,129.114465 L134.699519,113.250142 C136.671734,109.137443 142.365667,109.137443 144.337882,113.250142 L151.937217,129.114465 C152.721649,130.750142 154.233597,131.88101 155.983103,132.143311 L172.978295,134.687146 C177.385464,135.347851 179.144867,140.927955 175.955175,144.13002 L163.659149,156.480486 C162.39218,157.752404 161.813136,159.583569 162.112557,161.38009 L165.015201,178.815753 C165.769938,183.339225 161.16233,186.788744 157.220376,184.65321 L142.019231,176.420391 C140.452842,175.571621 138.582084,175.571621 137.01817,176.420391 L137.01817,176.420391 Z" id="Path" fill="#FFD02F"></path>
                <path d="M139.517463,324.343891 C136.931561,324.343891 134.835619,322.24795 134.835619,319.662048 L134.835619,246.435238 C134.835619,243.849336 136.931561,241.750919 139.517463,241.750919 C142.103365,241.750919 144.199307,243.849336 144.199307,246.435238 L144.199307,319.662048 C144.199307,322.24795 142.103365,324.343891 139.517463,324.343891 Z" id="Path" fill="#5C73BC"></path>
                <path d="M139.554581,226.421097 L139.48282,226.421097 C136.896917,226.421097 134.798501,224.322681 134.798501,221.736779 C134.798501,219.150876 136.894443,217.054935 139.48282,217.054935 L139.554581,217.054935 C142.140483,217.054935 144.236425,219.150876 144.236425,221.736779 C144.236425,224.322681 142.140483,226.421097 139.554581,226.421097 Z" id="Path" fill="#5C73BC"></path>
                <path d="M139.554581,210.314268 C139.547158,210.314268 139.539734,210.314268 139.534785,210.314268 L139.460549,210.314268 C136.874646,210.30437 134.788603,208.198529 134.798466,205.612627 C134.810874,203.031674 136.904341,200.95058 139.480345,200.95058 L139.502616,200.95058 L139.574378,200.95058 C142.16028,200.960478 144.246324,203.066318 144.23646,205.65222 C144.226527,208.230698 142.130585,210.314268 139.554581,210.314268 Z" id="Path" fill="#FFAA00"></path>
                <path d="M55.261595,146.268029 C54.0391689,146.268029 52.8192165,145.792916 51.9011598,144.847639 L1.64062516,93.0677316 C-0.16084543,91.2118213 -0.118778281,88.2473137 1.73713267,86.4483175 C3.59304299,84.6468469 6.55755059,84.6913884 8.35902118,86.544825 L58.6220302,138.324731 C60.4235008,140.178167 60.3789593,143.14515 58.5230483,144.944146 C57.6124148,145.82756 56.4370052,146.268029 55.261595,146.268029 Z" id="Path" fill="#FF4E61"></path>
                <path d="M72.1875,163.75813 C71.007141,163.75813 69.8267814,163.315187 68.9161479,162.42435 C67.065187,160.61793 67.030543,157.653422 68.8369624,155.80246 L68.8889283,155.750495 C70.6953477,153.902008 73.6598559,153.86489 75.5108175,155.673784 C77.361779,157.480204 77.3964224,160.444712 75.587528,162.295673 L75.5380376,162.347639 C74.6199804,163.285492 73.4049774,163.75813 72.1875,163.75813 L72.1875,163.75813 Z" id="Path" fill="#FFAA00"></path>
                <path d="M83.2413039,175.145998 C82.0658937,175.145998 80.8904834,174.705529 79.97985,173.822115 C78.126414,172.020645 78.0818719,169.056137 79.8833424,167.202701 L79.932834,167.148261 C81.736779,165.29235 84.7012866,165.250283 86.5547225,167.051753 C88.4106335,168.853224 88.455175,171.817732 86.6537044,173.673643 L86.6017391,173.725608 C85.6836818,174.670885 84.46373,175.145998 83.2413039,175.145998 L83.2413039,175.145998 Z" id="Path" fill="#5C73BC"></path>
                <path d="M223.773332,144.426965 C222.597922,144.426965 221.422511,143.988971 220.514352,143.105557 C218.658442,141.304087 218.6139,138.339578 220.41537,136.483668 L270.675905,84.706236 C272.477376,82.8503251 275.441884,82.8057835 277.297794,84.6072541 C279.153704,86.4087247 279.198247,89.3732323 277.396776,91.2291433 L227.133767,143.006575 C226.21571,143.951852 224.995758,144.426965 223.773332,144.426965 Z" id="Path" fill="#FFAA00"></path>
                <path d="M206.847427,161.919542 C205.634898,161.919542 204.424845,161.451852 203.509262,160.518948 L203.457296,160.466983 C201.643453,158.62097 201.670673,155.656462 203.514211,153.845093 C205.360223,152.03125 208.324731,152.05847 210.1361,153.902008 L210.188066,153.953974 C211.999434,155.799986 211.974689,158.764494 210.128676,160.575863 C209.218043,161.471649 208.032735,161.919542 206.847427,161.919542 Z" id="Path" fill="#FF4E61"></path>
                <path d="M195.793623,173.30741 C194.571196,173.30741 193.351244,172.832296 192.433187,171.88702 L192.381222,171.835054 C190.582226,169.979143 190.624293,167.014635 192.480204,165.213164 C194.336115,163.411694 197.300622,163.456236 199.102093,165.309672 L199.154058,165.361637 C200.953054,167.217548 200.910987,170.182056 199.055076,171.983526 C198.144443,172.86694 196.969033,173.30741 195.793623,173.30741 Z" id="Path" fill="#FFAA00"></path>
                <path d="M190.458498,73.9221576 C189.671592,73.9221576 188.874788,73.7241938 188.144796,73.3059955 C185.897907,72.0241795 185.11595,69.1636033 186.397766,66.9191885 L222.419754,3.79100679 C223.701569,1.54659204 226.559672,0.764635023 228.806561,2.04645095 C231.05345,3.32826624 231.835407,6.18884317 230.553591,8.43325792 L194.531603,71.5614396 C193.667986,73.0733877 192.08675,73.9221576 190.458498,73.9221576 Z" id="Path" fill="#62D38F"></path>
                <path d="M178.340639,95.2304864 C177.521564,95.2304864 176.695065,95.0176757 175.940328,94.5673077 L175.878465,94.5301893 C173.66127,93.2038319 172.936228,90.328408 174.26506,88.108739 C175.591417,85.886595 178.466841,85.1665015 180.68651,86.492859 L180.748374,86.5299774 C182.968043,87.8563348 183.690611,90.7317587 182.364253,92.9514283 C181.485789,94.4188348 179.934247,95.2304864 178.340639,95.2304864 Z" id="Path" fill="#FFAA00"></path>
                <path d="M170.417138,109.115173 C169.593114,109.115173 168.759191,108.897412 168.004454,108.442096 L167.94259,108.404977 C165.72787,107.068722 165.015201,104.190823 166.348982,101.976103 C167.685238,99.7613831 170.563136,99.0511878 172.777857,100.384969 L172.83972,100.422087 C175.05444,101.758342 175.76711,104.636241 174.430854,106.850962 C173.55239,108.30847 172.003323,109.115173 170.417138,109.115173 L170.417138,109.115173 Z" id="Path" fill="#2DC471"></path>
                <path d="M88.665512,73.9221576 C87.0372595,73.9221576 85.4560241,73.0733877 84.5924065,71.5589652 L48.5704186,8.43325792 C47.2886033,6.18636878 48.0705596,3.32826624 50.3149744,2.04645095 C52.5618635,0.764635023 55.4224405,1.54411765 56.7042564,3.79100679 L92.7262443,66.9167135 C94.0080603,69.1636033 93.2261026,72.0241795 90.9816885,73.3059955 C90.2492224,73.7241938 89.4524178,73.9221576 88.665512,73.9221576 Z" id="Path" fill="#5C73BC"></path>
                <path d="M100.783371,95.2304864 C99.1947119,95.2304864 97.6431704,94.4213092 96.7647059,92.9613265 C95.4333996,90.7441319 96.1510181,87.866233 98.3657383,86.5349262 L98.4300762,86.4978084 C100.647271,85.1665015 103.522695,85.8816456 104.854002,88.0988402 C106.187783,90.3160348 105.470164,93.1914593 103.25297,94.5252405 L103.191106,94.5623589 C102.436369,95.0152006 101.604921,95.2304864 100.783371,95.2304864 Z" id="Path" fill="#FF4E61"></path>
                <path d="M108.706872,109.115173 C107.123161,109.115173 105.579044,108.313419 104.698106,106.858385 C103.3569,104.64614 104.064621,101.768241 106.274392,100.427036 L106.336256,100.389918 C108.550976,99.0511878 111.428875,99.7564337 112.770079,101.968679 C114.108809,104.180925 113.403563,107.058824 111.191318,108.400029 L111.129454,108.437146 C110.369768,108.897412 109.533371,109.115173 108.706872,109.115173 Z" id="Path" fill="#FFAA00"></path>
                <path d="M254.752192,226.332014 L244.91834,233.681419 C242.369556,235.589296 238.803733,233.6542 238.885393,230.410068 L239.204609,217.898756 C239.236779,216.609517 238.652786,215.38709 237.640695,214.627404 L227.816742,207.265625 C225.267958,205.355274 225.950934,201.264848 228.972356,200.341841 L240.622526,196.788391 C241.820207,196.422158 242.770433,195.469457 243.156462,194.244556 L246.917774,182.344457 C247.892746,179.256222 251.881716,178.66233 253.665866,181.337316 L260.547582,191.653704 C261.257777,192.715286 262.428238,193.351244 263.677885,193.351244 L275.827913,193.358668 C278.980486,193.361143 280.762161,197.085336 278.841912,199.661341 L271.445489,209.589225 C270.683329,210.613688 270.458145,211.957367 270.844174,213.182268 L274.593114,225.08979 C275.563136,228.178026 272.675339,231.073247 269.705882,229.989395 L258.253676,225.809884 C257.075792,225.379313 255.766756,225.574802 254.752192,226.332014 L254.752192,226.332014 Z" id="Path" fill="#FFD02F"></path>
                <path d="M165.661057,324.343891 C163.075155,324.343891 160.979214,322.24795 160.979214,319.662048 C160.979214,283.407452 175.442944,258.897059 187.57565,244.717902 C200.769938,229.303945 213.937005,222.531109 214.491304,222.24901 C216.797582,221.078549 219.616092,222.001555 220.784078,224.310308 C221.952065,226.614112 221.034008,229.427673 218.730204,230.600608 C218.53224,230.702065 206.377262,237.039381 194.425198,251.12203 C178.44457,269.948388 170.342902,293.008696 170.342902,319.662048 C170.342902,322.24795 168.24696,324.343891 165.661057,324.343891 L165.661057,324.343891 Z" id="Path" fill="#FF4E61"></path>
                <path d="M65.1573107,251.715922 L72.6106478,261.601739 C74.5457436,264.16537 78.4926471,263.331448 79.2919261,260.191247 L82.3727376,248.083287 C82.6894796,246.838589 83.5827911,245.831448 84.7606757,245.393453 L96.1881365,241.144655 C99.1526441,240.043481 99.603012,235.91841 96.9527715,234.166431 L86.7279412,227.405967 C85.6762586,226.708145 85.0229781,225.522836 84.980911,224.236072 L84.5899321,211.724759 C84.4909502,208.480628 80.8211961,206.763292 78.383767,208.819641 L68.9829608,216.748091 C68.0129382,217.564692 66.7162753,217.839367 65.5161199,217.480557 L53.8461538,213.996394 C50.8197821,213.093184 48.1002548,216.156674 49.2459699,219.180572 L53.6605626,230.843114 C54.1158794,232.043269 53.9674065,233.399321 53.264635,234.465851 L46.4423077,244.821833 C44.6730061,247.509191 46.6600679,251.117081 49.8076923,250.93149 L61.9354495,250.208922 C63.1850965,250.134686 64.3902006,250.698883 65.1573107,251.715922 L65.1573107,251.715922 Z" id="Path" fill="#FFD02F"></path>
                <path d="M113.408513,324.343891 C110.82261,324.343891 108.726668,322.24795 108.726668,319.662048 C108.726668,300.620404 104.495192,283.19959 96.1510181,267.884615 C94.9137443,265.61298 95.7526161,262.769726 98.0242504,261.532452 C100.295885,260.295178 103.13914,261.13405 104.376414,263.40321 C113.475325,280.111354 118.090356,299.039169 118.090356,319.662048 C118.090356,322.24795 115.994415,324.343891 113.408513,324.343891 Z" id="Path" fill="#FFAA00"></path>
                <path d="M170.360223,35.4107752 C170.360223,28.261807 164.733103,22.466417 157.794471,22.466417 C150.853365,22.466417 145.228719,28.261807 145.228719,35.4107752 C145.228719,42.5597428 150.853365,48.3576078 157.794471,48.3576078 C164.733103,48.3576078 170.360223,42.5597428 170.360223,35.4107752 Z" id="Path" fill="#FFD02F"></path>
                <path d="M236.339084,283.048643 C236.339084,275.899675 230.714437,270.104284 223.775806,270.104284 C216.8347,270.104284 211.210054,275.899675 211.210054,283.048643 C211.210054,290.19761 216.8347,295.993001 223.775806,295.993001 C230.714437,295.993001 236.339084,290.19761 236.339084,283.048643 Z" id="Path" fill="#5C73BC"></path>
                <path d="M27.9549631,285.609799 C27.9549631,279.876273 23.4438628,275.229072 17.8761312,275.229072 C12.310874,275.229072 7.79977376,279.876273 7.79977376,285.609799 C7.79977376,291.3458 12.310874,295.993001 17.8761312,295.993001 C23.4438628,295.993001 27.9549631,291.3458 27.9549631,285.609799 L27.9549631,285.609799 Z" id="Path" fill="#62D38F"></path>
                <path d="M55.8554864,182.666148 C55.8554864,176.932621 51.3443862,172.285422 45.7766546,172.285422 C40.2113967,172.285422 35.7002971,176.932621 35.7002971,182.666148 C35.7002971,188.399675 40.2113967,193.04935 45.7766546,193.04935 C51.3443862,193.04935 55.8554864,188.399675 55.8554864,182.666148 Z" id="Path" fill="#5C73BC"></path>
                <g id="Group" transform="translate(83.619910, 0.000000)" fill="#FF4E61">
                    <path d="M49.9437926,10.3832014 C49.9437926,4.64720054 45.4326923,0 39.8674351,0 C34.2997029,0 29.7886033,4.64720054 29.7886033,10.3832014 C29.7886033,16.1167278 34.2997029,20.7639283 39.8674351,20.7639283 C45.4326923,20.7639283 49.9437926,16.1167278 49.9437926,10.3832014 Z" id="Path"></path>
                    <path d="M147.745333,96.8488402 C147.745333,91.1153138 143.231759,86.4656395 137.666502,86.4656395 C132.101244,86.4656395 127.58767,91.1153138 127.58767,96.8488402 C127.58767,102.582367 132.101244,107.229567 137.666502,107.229567 C143.231759,107.229567 147.745333,102.582367 147.745333,96.8488402 L147.745333,96.8488402 Z" id="Path"></path>
                    <path d="M5.04065312,20.7441319 C3.8652429,20.7441319 2.6898333,20.3061372 1.77919982,19.4202489 C-0.0767111312,17.6187783 -0.12125267,14.6567451 1.68021792,12.8008341 L7.50282805,6.80253095 C9.30429864,4.94662063 12.2688069,4.90207846 14.1222428,6.70354905 C15.9781531,8.50501964 16.0226953,11.4695279 14.2212247,13.3254382 L8.40108896,19.3237414 C7.48303167,20.2690188 6.26060489,20.7441319 5.04065312,20.7441319 Z" id="Path"></path>
                </g>
            </g>
        </g>
    </g>
</svg>