<?xml version="1.0" encoding="UTF-8"?>
<svg width="32px" height="32px" viewBox="0 0 32 32" version="1.1" xmlns="http://www.w3.org/2000/svg" xmlns:xlink="http://www.w3.org/1999/xlink">
    <title>flexible-learning</title>
    <g id="Page-1" stroke="none" stroke-width="1" fill="none" fill-rule="evenodd">
        <g id="Dashboard" transform="translate(-246.000000, -798.000000)" fill-rule="nonzero">
            <g id="Group-2" transform="translate(20.000000, 447.000000)">
                <g id="flexible-learning" transform="translate(226.000000, 351.000000)">
                    <circle id="Oval" fill="#0091FF" cx="16" cy="16" r="16"></circle>
                    <g id="mind" transform="translate(8.000000, 7.000000)">
                        <path d="M14.7643242,6.67620703 C14.4057656,2.93206641 11.25225,0 7.4131875,0 C7.06510547,0 6.70658203,0.0211289062 6.34795312,0.073828125 C3.22611328,0.516761719 0.673734375,2.97421875 0.146390625,6.075 C-0.2649375,8.46917578 0.452285156,10.8210937 2.12920312,12.5402344 C2.81478516,13.236293 3.1944375,14.1538711 3.1944375,15.1136719 L3.1944375,18 L10.57725,18 L10.57725,15.8203125 L13.7413125,15.8203125 L13.7413125,11.6015625 L15.9983437,11.6015625 C15.9245156,11.3273437 14.9963906,7.6359375 14.7643242,6.67620703 Z" id="Path" fill="#FED2A4"></path>
                        <path d="M15.9983438,11.6015625 L13.7413125,11.6015625 L13.7413125,15.8203125 L10.57725,15.8203125 L10.57725,18 L7.4131875,18 L7.4131875,0 C11.25225,0 14.4057656,2.93206641 14.7643242,6.67620703 C14.9963906,7.6359375 15.9245156,11.3273437 15.9983438,11.6015625 Z" id="Path" fill="#FFBD86"></path>
                        <path d="M8.99521875,3.69140625 C8.4256875,3.69140625 7.87725,3.84960938 7.4131875,4.11328125 C8.32478906,4.64589844 8.95760156,5.62605469 8.9938125,6.75421875 C9.93846094,7.30300781 10.57725,8.32675781 10.57725,9.4921875 C10.57725,9.52628906 10.5765469,9.56003906 10.5754922,9.59378906 C11.5204922,9.045 12.1592812,8.02125 12.1592812,6.85546875 C12.1592812,5.11523438 10.7354531,3.69140625 8.99521875,3.69140625 Z" id="Path" fill="#78FCF8"></path>
                        <path d="M5.83115625,3.69140625 C4.09092187,3.69140625 2.66709375,5.11523438 2.66709375,6.85546875 C2.66709375,8.02125 3.30588281,9.045 4.25088281,9.59378906 C4.24982812,9.56003906 4.249125,9.52628906 4.249125,9.4921875 C4.249125,8.32675781 4.88791406,7.30300781 5.8325625,6.75421875 C5.86877344,5.62605469 6.50158594,4.64589844 7.4131875,4.11328125 C6.949125,3.84960938 6.4006875,3.69140625 5.83115625,3.69140625 Z" id="Path" fill="#FDBF00"></path>
                        <path d="M8.9938125,6.75421875 C8.52799219,6.48316406 7.98799219,6.328125 7.4131875,6.328125 C6.83838281,6.328125 6.29838281,6.48316406 5.8325625,6.75421875 C5.86877344,5.62605469 6.50158594,4.64589844 7.4131875,4.11328125 C8.32478906,4.64589844 8.95760156,5.62605469 8.9938125,6.75421875 Z" id="Path" fill="#6AE390"></path>
                        <path d="M8.99521875,10.0195313 C8.4256875,10.0195313 7.87725,9.86132813 7.4131875,9.59765625 C6.949125,9.86132813 6.4006875,10.0195313 5.83115625,10.0195313 C5.25670313,10.0195313 4.71670313,9.86449219 4.25088281,9.59378906 C4.30502344,11.2876172 5.70705469,12.65625 7.4131875,12.65625 C9.11932031,12.65625 10.5213516,11.2876172 10.5754922,9.59378906 C10.1096719,9.86449219 9.56967188,10.0195313 8.99521875,10.0195313 Z" id="Path" fill="#FF7816"></path>
                        <path d="M10.5754922,9.59378906 C10.1096719,9.86449219 9.56967188,10.0195313 8.99521875,10.0195313 C8.4256875,10.0195313 7.87725,9.86132813 7.4131875,9.59765625 L7.4131875,12.65625 C9.11932031,12.65625 10.5213516,11.2876172 10.5754922,9.59378906 Z" id="Path" fill="#FF4B00"></path>
                        <path d="M8.99521875,6.85546875 C8.99521875,8.02617188 8.35185937,9.04921875 7.4131875,9.59765625 C6.47451562,9.04921875 5.83115625,8.02617188 5.83115625,6.85546875 C5.83115625,6.82171875 5.83185937,6.78796875 5.8325625,6.75421875 C6.29838281,6.48316406 6.83838281,6.328125 7.4131875,6.328125 C7.98799219,6.328125 8.52799219,6.48316406 8.9938125,6.75421875 C8.99451562,6.78796875 8.99521875,6.82171875 8.99521875,6.85546875 Z" id="Path" fill="#725D57"></path>
                        <path d="M8.99521875,6.85546875 C8.99521875,6.82171875 8.99451563,6.78796875 8.9938125,6.75421875 C8.52799219,6.48316406 7.98799219,6.328125 7.4131875,6.328125 L7.4131875,9.59765625 C8.35185938,9.04921875 8.99521875,8.02617188 8.99521875,6.85546875 Z" id="Path" fill="#68544F"></path>
                        <path d="M8.9938125,6.75421875 C8.95760156,5.62605469 8.32478906,4.64589844 7.4131875,4.11328125 L7.4131875,6.328125 C7.98799219,6.328125 8.52799219,6.48316406 8.9938125,6.75421875 Z" id="Path" fill="#40DA80"></path>
                        <path d="M10.57725,9.4921875 C10.57725,9.52628906 10.5765469,9.56003906 10.5754922,9.59378906 C10.1096719,9.86449219 9.56967187,10.0195312 8.99521875,10.0195312 C8.4256875,10.0195312 7.87725,9.86132812 7.4131875,9.59765625 C8.35185937,9.04921875 8.99521875,8.02617187 8.99521875,6.85546875 C8.99521875,6.82171875 8.99451562,6.78796875 8.9938125,6.75421875 C9.93846094,7.30300781 10.57725,8.32675781 10.57725,9.4921875 Z" id="Path" fill="#FF7C96"></path>
                        <path d="M7.4131875,9.59765625 C6.949125,9.86132812 6.4006875,10.0195312 5.83115625,10.0195312 C5.25670312,10.0195312 4.71670312,9.86449219 4.25088281,9.59378906 C4.24982812,9.56003906 4.249125,9.52628906 4.249125,9.4921875 C4.249125,8.32675781 4.88791406,7.30300781 5.8325625,6.75421875 C5.83185937,6.78796875 5.83115625,6.82171875 5.83115625,6.85546875 C5.83115625,8.02617187 6.47451562,9.04921875 7.4131875,9.59765625 Z" id="Path" fill="#FF9F00"></path>
                    </g>
                </g>
            </g>
        </g>
    </g>
</svg>