<?xml version="1.0" encoding="UTF-8"?>
<svg width="111px" height="82px" viewBox="0 0 111 82" version="1.1" xmlns="http://www.w3.org/2000/svg" xmlns:xlink="http://www.w3.org/1999/xlink">
    <title>gateway-of-india-2</title>
    <g id="Page-1" stroke="none" stroke-width="1" fill="none" fill-rule="evenodd">
        <g id="Choose-language" transform="translate(-204.000000, -252.000000)" fill="#495057" fill-rule="nonzero">
            <g id="Group-2" transform="translate(28.000000, 214.000000)">
                <g id="gateway-of-india-2" transform="translate(176.000000, 38.000000)">
                    <path d="M17.37,74.045625 L26.600625,74.045625 L26.600625,63.3525 L17.37,63.3525 L17.37,74.045625 Z M105.834375,78.1125 L105.834375,47.360625 L107.9325,47.360625 L107.9325,45.645 L105.89625,45.645 L105.89625,45.043125 L104.945625,45.043125 L104.945625,39.406875 L105.04125,39.406875 L105.654375,38.6025 L105.76125,38.6025 L105.76125,37.854375 L105.6825,37.854375 L104.16375,36.63375 L104.743125,36.63375 L104.743125,35.35125 L104.34375,35.35125 L104.34375,33.93375 L77.43375,33.93375 L77.43375,26.39625 L78.305625,26.39625 L78.305625,25.0575 L77.709375,25.0575 L77.709375,24.376875 L77.0175,24.376875 L77.0175,16.783125 L77.535,16.783125 L77.535,16.029375 L77.1975,16.029375 L77.1975,15.691875 L76.77,15.691875 L76.77,15.185625 L77.045625,15.185625 L77.045625,14.35875 L76.69125,14.35875 L76.69125,13.633125 L76.2525,13.633125 L76.2525,13.014375 L75.85875,13.014375 L75.85875,12.345 L75.45375,12.345 L75.45375,11.810625 L75.178125,11.810625 L75.178125,11.293125 L74.8125,11.293125 L74.61,10.640625 L74.390625,10.640625 L74.390625,10.44375 L74.0925,10.44375 L74.0925,10.14 C74.30625,10.08375 74.446875,9.898125 74.446875,9.706875 C74.446875,9.5325 74.334375,9.369375 74.154375,9.301875 C74.154375,9.279375 74.165625,9.256875 74.165625,9.234375 C74.165625,8.964375 74.08125,8.750625 73.974375,8.655 L73.974375,7.130625 L73.7775,7.130625 L73.7775,8.655 C73.665,8.750625 73.580625,8.964375 73.580625,9.234375 C73.580625,9.256875 73.580625,9.279375 73.58625,9.301875 C73.4175,9.375 73.29375,9.526875 73.29375,9.706875 C73.29375,9.898125 73.44,10.08375 73.65375,10.14 L73.65375,10.455 L73.366875,10.455 L73.366875,10.640625 L73.13625,10.640625 L72.939375,11.293125 L72.57375,11.293125 L72.57375,11.81625 L72.2925,11.81625 L72.2925,12.350625 L71.893125,12.350625 L71.893125,13.02 L71.49375,13.02 L71.49375,13.6275 L71.060625,13.6275 L71.060625,14.353125 L70.70625,14.353125 L70.70625,15.185625 L70.970625,15.185625 L70.970625,15.691875 L70.54875,15.691875 L70.54875,16.029375 L70.21125,16.029375 L70.21125,16.78875 L70.734375,16.78875 L70.734375,21.856875 L55.569375,21.856875 L55.569375,1.719375 C55.749375,1.635 55.884375,1.438125 55.884375,1.23 C55.884375,0.9375 55.6425,0.695625 55.344375,0.695625 C55.051875,0.695625 54.81,0.9375 54.81,1.24125 C54.81,1.44375 54.93375,1.640625 55.11375,1.725 L55.11375,21.8625 L39.943125,21.8625 L39.943125,16.783125 L40.46625,16.783125 L40.46625,16.029375 L40.12875,16.029375 L40.12875,15.691875 L39.718125,15.691875 L39.718125,15.185625 L39.976875,15.185625 L39.976875,14.35875 L39.6225,14.35875 L39.6225,13.633125 L39.1725,13.633125 L39.1725,13.014375 L38.795625,13.014375 L38.795625,12.345 L38.390625,12.345 L38.390625,11.810625 L38.115,11.810625 L38.115,11.293125 L37.74375,11.293125 L37.546875,10.635 L37.321875,10.635 L37.321875,10.44375 L37.02375,10.44375 L37.02375,10.14 C37.243125,10.08375 37.38375,9.898125 37.38375,9.706875 C37.38375,9.5325 37.265625,9.369375 37.1025,9.301875 L37.1025,9.22875 C37.1025,8.95875 37.0125,8.745 36.9225,8.649375 L36.9225,7.130625 L36.70875,7.130625 L36.70875,8.655 C36.59625,8.750625 36.523125,8.964375 36.523125,9.234375 C36.523125,9.256875 36.523125,9.279375 36.52875,9.301875 C36.343125,9.369375 36.230625,9.52125 36.230625,9.70125 C36.230625,9.8925 36.388125,10.078125 36.585,10.134375 L36.585,10.449375 L36.30375,10.449375 L36.30375,10.635 L36.073125,10.635 L35.87625,11.293125 L35.510625,11.293125 L35.510625,11.81625 L35.235,11.81625 L35.235,12.350625 L34.83,12.350625 L34.83,13.02 L34.43625,13.02 L34.43625,13.6275 L34.003125,13.6275 L34.003125,14.353125 L33.64875,14.353125 L33.64875,15.185625 L33.913125,15.185625 L33.913125,15.691875 L33.485625,15.691875 L33.485625,16.029375 L33.148125,16.029375 L33.148125,16.78875 L33.6825,16.78875 L33.6825,24.3825 L32.979375,24.3825 L32.979375,25.063125 L32.3775,25.063125 L32.3775,26.401875 L33.249375,26.401875 L33.249375,33.939375 L6.350625,33.939375 L6.350625,35.356875 L5.94,35.356875 L5.94,36.645 L6.519375,36.645 L5.000625,37.865625 L4.9275,37.865625 L4.9275,38.61375 L5.034375,38.61375 L5.653125,39.418125 L5.7375,39.418125 L5.7375,45.054375 L4.786875,45.054375 L4.786875,45.6225 L2.750625,45.6225 L2.750625,47.383125 L4.854375,47.383125 L4.854375,78.129375 L0,78.129375 L0,81.504375 L110.7,81.504375 L110.7,78.129375 L105.834375,78.1125 L105.834375,78.1125 Z M28.13625,74.4 L15.80625,74.4 L15.80625,62.458125 C15.80625,62.458125 16.0425,56.95125 21.943125,55.35375 L22.021875,55.35375 C27.928125,56.945625 28.13625,62.458125 28.13625,62.458125 L28.13625,74.4 Z M65.750625,77.64 L44.9775,77.64 L44.9775,60.804375 C44.9775,60.804375 45.36,51.534375 55.299375,48.87375 L55.423125,48.87375 C65.368125,51.534375 65.750625,60.804375 65.750625,60.804375 C65.750625,60.804375 65.750625,77.64 65.750625,77.64 Z M94.87125,74.4 L82.54125,74.4 L82.54125,62.458125 C82.54125,62.458125 82.805625,57.463125 87.975,55.635 L89.4375,55.635 C94.60125,57.463125 94.87125,62.458125 94.87125,62.458125 L94.87125,74.4 Z M84.105,74.045625 L93.313125,74.045625 L93.313125,63.3525 L84.105,63.3525 C84.105,63.3525 84.105,74.045625 84.105,74.045625 Z" id="Shape"></path>
                </g>
            </g>
        </g>
    </g>
</svg>