<?xml version="1.0" encoding="UTF-8"?>
<svg width="24px" height="24px" viewBox="0 0 24 24" version="1.1" xmlns="http://www.w3.org/2000/svg" xmlns:xlink="http://www.w3.org/1999/xlink">
    <title>ic_query_builder_24px</title>
    <g id="Page-1" stroke="none" stroke-width="1" fill="none" fill-rule="evenodd">
        <g id="Chapters-Copy" transform="translate(-99.000000, -593.000000)">
            <g id="Group-7" transform="translate(86.000000, 580.000000)">
                <g id="Group" transform="translate(13.000000, 13.000000)">
                    <polygon id="Shape" points="0 0 24 0 24 24 0 24"></polygon>
                    <path d="M11.99,2 C17.52,2 22,6.48 22,12 C22,17.52 17.52,22 11.99,22 C6.47,22 2,17.52 2,12 C2,6.48 6.47,2 11.99,2 Z M12,4 C7.58,4 4,7.58 4,12 C4,16.42 7.58,20 12,20 C16.42,20 20,16.42 20,12 C20,7.58 16.42,4 12,4 Z M12.5,7 L12.5,12.25 L17,14.92 L16.25,16.15 L11,13 L11,7 L12.5,7 Z" id="Shape" fill="#000000" opacity="0.501121158"></path>
                </g>
            </g>
        </g>
    </g>
</svg>