<?xml version="1.0" encoding="UTF-8"?>
<svg width="24px" height="24px" viewBox="0 0 24 24" version="1.1" xmlns="http://www.w3.org/2000/svg" xmlns:xlink="http://www.w3.org/1999/xlink">
    <title>ic_settings_cell_24px</title>
    <g id="Page-1" stroke="none" stroke-width="1" fill="none" fill-rule="evenodd">
        <g id="Chapters-Copy" transform="translate(-168.000000, -593.000000)">
            <g id="Group-6" transform="translate(152.000000, 580.000000)">
                <g id="Group" transform="translate(16.000000, 13.000000)">
                    <polygon id="Shape" points="0 0 24 0 24 24 0 24"></polygon>
                    <path d="M7,24 L9,24 L9,22 L7,22 L7,24 L7,24 Z M11,24 L13,24 L13,22 L11,22 L11,24 L11,24 Z M15,24 L17,24 L17,22 L15,22 L15,24 L15,24 Z M16,0.01 L8,0 C6.9,0 6,0.9 6,2 L6,18 C6,19.1 6.9,20 8,20 L16,20 C17.1,20 18,19.1 18,18 L18,2 C18,0.9 17.1,0.01 16,0.01 L16,0.01 Z M16,16 L8,16 L8,4 L16,4 L16,16 L16,16 Z" id="Shape" fill="#FF3366"></path>
                </g>
            </g>
        </g>
    </g>
</svg>