<?xml version="1.0" encoding="UTF-8"?>
<svg width="32px" height="32px" viewBox="0 0 32 32" version="1.1" xmlns="http://www.w3.org/2000/svg" xmlns:xlink="http://www.w3.org/1999/xlink">
    <title>topic</title>
    <g id="Page-1" stroke="none" stroke-width="1" fill="none" fill-rule="evenodd">
        <g id="Dashboard" transform="translate(-144.000000, -798.000000)" fill-rule="nonzero">
            <g id="Group-2" transform="translate(20.000000, 447.000000)">
                <g id="topic" transform="translate(124.000000, 351.000000)">
                    <circle id="Oval" fill="#0091FF" cx="16" cy="16" r="16"></circle>
                    <g id="list" transform="translate(8.000000, 7.000000)">
                        <path d="M7.26483786,2.51701476 C7.09635552,2.51701476 6.95975441,2.38041364 6.95975441,2.21193131 L6.95975441,1.33481638 C6.95975441,1.14135533 6.88436066,0.959411189 6.7474926,0.822543125 C6.29451994,0.369456062 5.51060801,0.688916572 5.51060801,1.33481638 L5.51060801,2.21193131 C5.51060801,2.38041364 5.37400689,2.51701476 5.20552455,2.51701476 C5.03704222,2.51701476 4.9004411,2.38041364 4.9004411,2.21193131 L4.9004411,1.33481638 C4.9004411,0.145944297 6.34390532,-0.444125237 7.17891873,0.391116987 C7.43103207,0.643154054 7.56992131,0.978326363 7.56992131,1.33481638 L7.56992131,2.21193131 C7.56992131,2.38041364 7.4333202,2.51701476 7.26483786,2.51701476 L7.26483786,2.51701476 Z" id="Path" fill="#4D4E59"></path>
                        <path d="M12.4512566,3.0509108 L12.4512566,16.7796662 C12.4512566,17.4535193 11.9047758,18 11.2309228,18 L1.23943966,18 C0.565586586,18 0.0191058512,17.4535193 0.0191058512,16.7796662 L0.0191058512,3.0509108 C0.0191058512,2.37705772 0.565586586,1.83057699 1.23943966,1.83057699 L11.2309228,1.83057699 C11.9047758,1.83057699 12.4512566,2.37705772 12.4512566,3.0509108 Z" id="Path" fill="#D6F4FC"></path>
                        <path d="M11.6441583,1.90230974 C12.8401617,2.33266808 12.5043792,4.11870289 11.2332871,4.11870289 L6.27331664,4.11870289 C4.08289372,4.11870289 2.30723175,5.89436485 2.30723175,8.08478778 L2.30723175,16.7820306 C2.30723175,18.0531227 0.521196944,18.3889051 0.0908385981,17.1929017 C0.0443896424,17.0638514 0.0191058512,16.9247334 0.0191058512,16.7796662 L0.0191058512,3.0509108 C0.0191058512,2.37694332 0.56547218,1.83057699 1.23943966,1.83057699 C12.0124322,1.83057699 11.3592866,1.7998017 11.6441583,1.90230974 Z" id="Path" fill="#E8F8FC"></path>
                        <path d="M9.43855746,1.83057699 L9.43855746,2.97463994 C9.43855746,3.47993441 9.02860157,3.8898903 8.5233071,3.8898903 L3.94705531,3.8898903 C3.44176084,3.8898903 3.03180495,3.47993441 3.03180495,2.97463994 L3.03180495,1.83057699 L9.43855746,1.83057699 Z" id="Path" fill="#FE4F60"></path>
                        <path d="M15.84531,8.3517358 L15.84531,15.5974678 C15.84531,16.1027623 15.4353541,16.5127182 14.9300596,16.5127182 L7.68432761,16.5127182 C7.17903314,16.5127182 6.76907725,16.1027623 6.76907725,15.5974678 L6.76907725,8.3517358 C6.76907725,7.84644133 7.17903314,7.43648544 7.68432761,7.43648544 L14.9300596,7.43648544 C15.4353541,7.43648544 15.84531,7.84644133 15.84531,8.3517358 Z" id="Path" fill="#FFAA64"></path>
                        <g id="Group" transform="translate(1.754230, 5.605908)" fill="#FFFFFF">
                            <path d="M0.928368948,1.60775166 L0.413540621,1.09292334 C0.294405532,0.973750111 0.294405532,0.780632285 0.413540621,0.661459062 C0.532713844,0.542362109 0.72583167,0.542362109 0.845004894,0.661459062 L1.14410108,0.960593387 L2.01522875,0.0894275872 C2.13440197,-0.0296693658 2.3275198,-0.0296693658 2.44669302,0.0894275872 C2.56582811,0.208600811 2.56582811,0.401718637 2.44669302,0.520891861 L1.35983322,1.60775166 C1.24062186,1.72688675 1.04754217,1.72684862 0.928368948,1.60775166 Z" id="Path"></path>
                            <path d="M0.928368948,5.53570112 L0.413540621,5.02087279 C0.294405532,4.90169957 0.294405532,4.70858174 0.413540621,4.58940852 C0.532713844,4.47031157 0.72583167,4.47031157 0.845004894,4.58940852 L1.14410108,4.88854285 L2.01522875,4.01737705 C2.13440197,3.89828009 2.3275198,3.89828009 2.44669302,4.01737705 C2.56582811,4.13655027 2.56582811,4.32966809 2.44669302,4.44884132 L1.35983322,5.53570112 C1.24062186,5.65483621 1.04754217,5.65479807 0.928368948,5.53570112 Z" id="Path"></path>
                            <path d="M2.53604434,8.38987123 L2.53604434,9.076309 C2.53604434,9.58084076 2.12532574,9.99155936 1.62079398,9.99155936 L0.93435621,9.99155936 C0.42982445,9.99155936 0.0191058512,9.58084076 0.0191058512,9.076309 L0.0191058512,8.38987123 C0.0191058512,7.88533947 0.42982445,7.47462087 0.93435621,7.47462087 L1.62079398,7.47462087 C2.12532574,7.47462087 2.53604434,7.88533947 2.53604434,8.38987123 Z" id="Path"></path>
                        </g>
                        <path d="M14.9276571,8.9619027 L10.7351621,8.9619027 C9.38722717,8.9619027 8.29449451,10.0546354 8.29449451,11.4025703 L8.29449451,15.5950653 C8.29449451,16.5550104 6.86277601,16.6397854 6.77311961,15.6840352 C6.76682726,15.616955 6.76907725,8.31360037 6.76907725,8.3517358 C6.76907725,7.84625065 7.17884246,7.43648544 7.68432761,7.43648544 L14.9300596,7.43648544 C15.9695552,7.43648544 15.9218097,8.9619027 14.9276571,8.9619027 Z" id="Path" fill="#FFBD7B"></path>
                        <path d="M9.40042203,14.7966237 L8.37076538,14.7966237 C8.20228304,14.7966237 8.06568193,14.6600226 8.06568193,14.4915402 C8.06568193,14.323058 8.20228304,14.1864568 8.37076538,14.1864568 L9.40042203,14.1864568 C9.56890437,14.1864568 9.70550549,14.323058 9.70550549,14.4915402 C9.70550549,14.6600226 9.56890437,14.7966237 9.40042203,14.7966237 Z" id="Path" fill="#FFFFFF"></path>
                        <path d="M12.7182046,7.43648544 L12.7182046,9.58923055 C12.7182046,9.92634777 12.4451549,10.1993975 12.1080377,10.1993975 L10.544485,10.1993975 C10.2073678,10.1993975 9.93431807,9.92634777 9.93431807,9.58923055 L9.93431807,7.43648544 L12.7182046,7.43648544 Z" id="Path" fill="#E8F8FC"></path>
                        <path d="M12.7182046,8.9619027 L12.7182046,9.58923055 C12.7182046,9.92634777 12.4451549,10.1993975 12.1080377,10.1993975 L10.544485,10.1993975 C10.2073678,10.1993975 9.93431807,9.92634777 9.93431807,9.58923055 L9.93431807,9.09652078 C10.4346931,8.9223944 10.6046246,8.9619027 12.7182046,8.9619027 Z" id="Path" fill="#D6F4FC"></path>
                    </g>
                </g>
            </g>
        </g>
    </g>
</svg>