<?xml version="1.0" encoding="UTF-8"?>
<svg width="24px" height="24px" viewBox="0 0 24 24" version="1.1" xmlns="http://www.w3.org/2000/svg" xmlns:xlink="http://www.w3.org/1999/xlink">
    <title>ic_play_circle_outline_24px</title>
    <g id="Page-1" stroke="none" stroke-width="1" fill="none" fill-rule="evenodd" opacity="0.495176769">
        <g id="Chapters-Copy" transform="translate(-33.000000, -593.000000)">
            <g id="Group-8" transform="translate(20.000000, 580.000000)">
                <g id="Group" transform="translate(13.000000, 13.000000)">
                    <polygon id="Shape" points="0 0 24 0 24 24 0 24"></polygon>
                    <path d="M10,16.5 L16,12 L10,7.5 L10,16.5 L10,16.5 Z M12,2 C6.48,2 2,6.48 2,12 C2,17.52 6.48,22 12,22 C17.52,22 22,17.52 22,12 C22,6.48 17.52,2 12,2 L12,2 Z M12,20 C7.59,20 4,16.41 4,12 C4,7.59 7.59,4 12,4 C16.41,4 20,7.59 20,12 C20,16.41 16.41,20 12,20 L12,20 Z" id="Shape" fill="#FF3366"></path>
                </g>
            </g>
        </g>
    </g>
</svg>